<?xml version="1.0" encoding="UTF-8" standalone="no"?>
<svg
   id="Layer_1"
   data-name="Layer 1"
   width="56"
   height="56"
   viewBox="0 0 56 56"
   version="1.1"
   sodipodi:docname="linkedin.svg"
   xmlns:inkscape="http://www.inkscape.org/namespaces/inkscape"
   xmlns:sodipodi="http://sodipodi.sourceforge.net/DTD/sodipodi-0.dtd"
   xmlns="http://www.w3.org/2000/svg"
   xmlns:svg="http://www.w3.org/2000/svg">
  <defs
     id="defs123" />
  <sodipodi:namedview
     id="namedview121"
     pagecolor="#ffffff"
     bordercolor="#000000"
     borderopacity="0.25"
     inkscape:showpageshadow="2"
     inkscape:pageopacity="0.0"
     inkscape:pagecheckerboard="0"
     inkscape:deskcolor="#d1d1d1"
     showgrid="false" />
  <style
     id="style114">
    .favicon-background { fill: #0a66c2; }
    .favicon-text { fill: #fff; }
  </style>
  <path
     class="favicon-background"
     d="M 51.92,0 H 4.08 A 4.08,4.08 0 0 0 0,4.08 V 51.92 A 4.08,4.08 0 0 0 4.08,56 H 51.92 A 4.08,4.08 0 0 0 56,51.92 V 4.08 A 4.08,4.08 0 0 0 51.92,0 Z M 16,48 H 8 V 21 h 8 z M 12,16.7 a 4.7,4.7 0 0 1 0,-9.4 v 0 a 4.7,4.7 0 0 1 0,9.4 z M 48,48 H 40 V 33.81 C 40,29.5 37.27,27.7 35,27.7 a 5.82,5.82 0 0 0 -6,6.21 V 48 H 21 V 21 h 7.53 v 3.79 h 0.11 c 0.8,-1.64 4.44,-4.37 9.13,-4.37 4.69,0 10.23,3.17 10.23,11.34 z"
     id="path116" />
  <path
     class="favicon-text"
     d="M 48,31.76 V 48 H 40 V 33.81 C 40,29.5 37.27,27.7 35,27.7 a 5.82,5.82 0 0 0 -6,6.21 V 48 H 21 V 21 h 7.53 v 3.79 h 0.11 c 0.8,-1.64 4.44,-4.37 9.13,-4.37 4.69,0 10.23,3.17 10.23,11.34 z M 12,7.3 A 4.7,4.7 0 1 0 16.7,12 4.69,4.69 0 0 0 12,7.3 Z M 8,48 h 8 V 21 H 8 Z"
     id="path118" />
</svg>
